<svg width="93" height="104" viewBox="0 0 93 104" fill="none" xmlns="http://www.w3.org/2000/svg">
<rect x="1.49341" y="1.60352" width="89.531" height="101.18" fill="#7FB2AC" stroke="#29454D" stroke-width="2"/>
<path d="M15.2107 22.9185H52.5436C54.7527 22.9185 56.5436 24.7093 56.5436 26.9185V102.783H11.2107V26.9185C11.2107 24.7093 13.0016 22.9185 15.2107 22.9185Z" fill="white" stroke="#29454D" stroke-width="2"/>
<path d="M29.2038 48.823H26.8743L32.1086 34.2776H34.6442L39.8785 48.823H37.549L33.4368 36.9196H33.3231L29.2038 48.823ZM29.5944 43.127H37.1513V44.9736H29.5944V43.127Z" fill="#19888C"/>
<path d="M17.2979 62.9563C17.2979 62.404 17.7456 61.9563 18.2979 61.9563H21.0276H23.7573C24.3096 61.9563 24.7573 62.404 24.7573 62.9563V76.3966C24.7573 76.9489 24.3096 77.3966 23.7573 77.3966H21.0276H18.2979C17.7456 77.3966 17.2979 76.9489 17.2979 76.3966V62.9563Z" fill="#7FB2AC"/>
<path d="M21.0276 57.9521V61.9563M21.0276 61.9563H18.2979C17.7456 61.9563 17.2979 62.404 17.2979 62.9563V76.3966C17.2979 76.9489 17.7456 77.3966 18.2979 77.3966H21.0276M21.0276 61.9563H23.7573C24.3096 61.9563 24.7573 62.404 24.7573 62.9563V76.3966C24.7573 76.9489 24.3096 77.3966 23.7573 77.3966H21.0276M21.0276 77.3966V81.9008" stroke="#29454D" stroke-width="2" stroke-linecap="round"/>
<rect x="62.0669" y="48.3518" width="20.5327" height="25.0788" rx="3" fill="#19888C" stroke="#29454D" stroke-width="2"/>
<path d="M69.4283 58.5655C69.4283 59.4661 68.6983 60.1962 67.7977 60.1962C66.8971 60.1962 66.167 59.4661 66.167 58.5655C66.167 57.6649 66.8971 56.9348 67.7977 56.9348C68.6983 56.9348 69.4283 57.6649 69.4283 58.5655Z" fill="#29454D"/>
<path d="M69.3285 63.4305C69.3285 64.3311 68.5984 65.0612 67.6978 65.0612C66.7972 65.0612 66.0671 64.3311 66.0671 63.4305C66.0671 62.5299 66.7972 61.7998 67.6978 61.7998C68.5984 61.7998 69.3285 62.5299 69.3285 63.4305Z" fill="#29454D"/>
<path d="M69.3282 68.296C69.3282 69.1966 68.5982 69.9266 67.6976 69.9266C66.797 69.9266 66.0669 69.1966 66.0669 68.296C66.0669 67.3954 66.797 66.6653 67.6976 66.6653C68.5982 66.6653 69.3282 67.3954 69.3282 68.296Z" fill="#29454D"/>
<path d="M74.0636 58.5655C74.0636 59.4661 73.3335 60.1962 72.4329 60.1962C71.5323 60.1962 70.8022 59.4661 70.8022 58.5655C70.8022 57.6649 71.5323 56.9348 72.4329 56.9348C73.3335 56.9348 74.0636 57.6649 74.0636 58.5655Z" fill="#29454D"/>
<path d="M73.9637 63.4305C73.9637 64.3311 73.2337 65.0612 72.3331 65.0612C71.4325 65.0612 70.7024 64.3311 70.7024 63.4305C70.7024 62.5299 71.4325 61.7998 72.3331 61.7998C73.2337 61.7998 73.9637 62.5299 73.9637 63.4305Z" fill="#29454D"/>
<path d="M73.9635 68.296C73.9635 69.1966 73.2334 69.9266 72.3328 69.9266C71.4322 69.9266 70.7021 69.1966 70.7021 68.296C70.7021 67.3954 71.4322 66.6653 72.3328 66.6653C73.2334 66.6653 73.9635 67.3954 73.9635 68.296Z" fill="#29454D"/>
<path d="M78.6991 58.5655C78.6991 59.4661 77.969 60.1962 77.0684 60.1962C76.1678 60.1962 75.4377 59.4661 75.4377 58.5655C75.4377 57.6649 76.1678 56.9348 77.0684 56.9348C77.969 56.9348 78.6991 57.6649 78.6991 58.5655Z" fill="#29454D"/>
<path d="M78.5995 63.4305C78.5995 64.3311 77.8694 65.0612 76.9688 65.0612C76.0682 65.0612 75.3381 64.3311 75.3381 63.4305C75.3381 62.5299 76.0682 61.7998 76.9688 61.7998C77.8694 61.7998 78.5995 62.5299 78.5995 63.4305Z" fill="#29454D"/>
<path d="M78.5992 68.296C78.5992 69.1966 77.8692 69.9266 76.9686 69.9266C76.068 69.9266 75.3379 69.1966 75.3379 68.296C75.3379 67.3954 76.068 66.6653 76.9686 66.6653C77.8692 66.6653 78.5992 67.3954 78.5992 68.296Z" fill="#29454D"/>
<path d="M68.022 53.664C68.022 52.8518 68.6804 52.1934 69.4926 52.1934H75.7523C76.5645 52.1934 77.2229 52.8518 77.2229 53.664C77.2229 54.4762 76.5645 55.1346 75.7523 55.1346H69.4926C68.6804 55.1346 68.022 54.4762 68.022 53.664Z" fill="#29454D"/>
<circle cx="72.433" cy="35.5541" r="7.30675" fill="white" stroke="#29454D" stroke-width="2"/>
</svg>
